<svg xmlns="http://www.w3.org/2000/svg" viewBox="0 0 512 512"><rect width="512" height="512" rx="112" fill="#0E6B66"/><g transform="translate(256 256) scale(1.18) translate(-272 -252)">
<path d="M256 400 C256 340 258 300 270 262" stroke="#F5F3EE" stroke-width="18" stroke-linecap="round" fill="none"/>
<path d="M270 262 C268 180 320 120 404 104 C410 190 360 254 270 262 Z" fill="#F5F3EE"/>
<path d="M276 252 C310 210 340 176 382 132" stroke="#0E6B66" stroke-width="10" stroke-linecap="round" fill="none"/>
<path d="M258 312 C252 252 206 214 140 214 C140 274 186 318 258 312 Z" fill="#9CC7BE"/>
<path d="M250 304 C222 274 196 252 164 234" stroke="#0E6B66" stroke-width="9" stroke-linecap="round" fill="none"/>
</g></svg>